<svg width="24" height="24" viewBox="0 0 24 24" fill="none" xmlns="http://www.w3.org/2000/svg">
<g id="001-bed">
<path id="XMLID_175_" d="M22.5 13.5V18.75C22.5 19.164 22.164 19.5 21.75 19.5C21.336 19.5 21 19.164 21 18.75V18H3V18.75C3 19.164 2.664 19.5 2.25 19.5C1.836 19.5 1.5 19.164 1.5 18.75V13.5C1.5 12.2595 2.5095 11.25 3.75 11.25H20.25C21.4905 11.25 22.5 12.2595 22.5 13.5Z" fill="#FE6043"/>
<path id="XMLID_178_" d="M3.75 9.75V5.25C3.75 4.836 4.086 4.5 4.5 4.5H19.5C19.914 4.5 20.25 4.836 20.25 5.25V9.75H18V9C18 8.17275 17.3273 7.5 16.5 7.5H14.25C13.4227 7.5 12.75 8.17275 12.75 9V9.75H11.25V9C11.25 8.17275 10.5773 7.5 9.75 7.5H7.5C6.67275 7.5 6 8.17275 6 9V9.75H3.75Z" fill="#FE6043"/>
</g>
</svg>
