<svg width="25" height="24" viewBox="0 0 25 24" fill="none" xmlns="http://www.w3.org/2000/svg">
<g id="002-bathtub">
<g id="_x36_03">
<path id="Vector" d="M3.03851 16.7064C3.33373 18.691 4.99531 20.2141 6.96159 20.3618L6.4374 21.4881C6.22195 21.9505 6.42207 22.4995 6.88451 22.7149C7.34926 22.9307 7.89743 22.7265 8.11047 22.2678L8.98961 20.3802H16.0024L16.8815 22.2678C17.0949 22.7272 17.6435 22.9303 18.1075 22.7149C18.5699 22.4995 18.77 21.9505 18.5546 21.4881L17.9058 20.095C17.9069 20.0947 17.908 20.0945 17.9092 20.0941C17.9554 20.0848 18.0015 20.0664 18.0477 20.0479C19.1 19.6048 19.9491 18.7464 20.3924 17.6572L21.7216 13.9187H2.68762L3.03851 16.7064Z" fill="#FE6043"/>
<path id="Vector_2" d="M22.6539 10.2265C22.5591 10.2265 19.1528 10.2265 19.2475 10.2265V4.34645C19.2475 2.61107 17.8262 1.19873 16.0907 1.19873C14.7708 1.19873 13.6354 2.01104 13.1738 3.15565L12.5552 2.94336C12.0754 2.77721 11.5492 3.04488 11.3831 3.5249C11.2168 4.00492 11.4845 4.53102 11.9646 4.69723L14.8629 5.67569C15.2569 5.83306 15.8429 5.63312 16.0353 5.09414C16.1923 4.61413 15.9338 4.08797 15.4538 3.92182L14.9276 3.74643C15.1491 3.33104 15.5922 3.04488 16.0907 3.04488C16.8107 3.04488 17.4014 3.62643 17.4014 4.34645V10.2265C15.2296 10.2265 5.73874 10.2265 2.34617 10.2265C1.8292 10.2265 1.4231 10.6418 1.4231 11.1495C1.4231 11.6572 1.8292 12.0726 2.34617 12.0726H22.6539C23.1616 12.0726 23.5769 11.6572 23.5769 11.1495C23.5769 10.6418 23.1616 10.2265 22.6539 10.2265Z" fill="#FE6043"/>
</g>
</g>
</svg>
