<svg width="24" height="24" viewBox="0 0 24 24" fill="none" xmlns="http://www.w3.org/2000/svg">
<g id="004-move" clip-path="url(#clip0_1624_4036)">
<path id="Vector" d="M20.0732 8.0732L19.0788 9.06757L21.3005 11.2892H14.6139C14.3639 10.3608 13.6316 9.62848 12.7031 9.37845V2.69191L14.9324 4.92116L15.9268 3.9268L12 0L8.0732 3.9268L9.06757 4.92116L11.2969 2.69191V9.37845C10.3685 9.62844 9.63612 10.3608 9.38614 11.2892H2.69951L4.92116 9.06752L3.9268 8.07316L0 12L3.9268 15.9268L4.92116 14.9324L2.68418 12.6955H9.38609C9.63608 13.6239 10.3684 14.3562 11.2968 14.6062V21.3081L9.06752 19.0788L8.07316 20.0732L12 24L15.9268 20.0732L14.9324 19.0788L12.7031 21.3081V14.6062C13.6315 14.3562 14.3638 13.6239 14.6138 12.6955H21.3157L19.0788 14.9324L20.0732 15.9268L24 12L20.0732 8.0732Z" fill="#FE6043"/>
</g>
<defs>
<clipPath id="clip0_1624_4036">
<rect width="24" height="24" fill="white"/>
</clipPath>
</defs>
</svg>
