<svg width="144" height="144" viewBox="0 0 144 144" fill="none" xmlns="http://www.w3.org/2000/svg">
<g id="Group 2">
<circle id="Ellipse 1" cx="4" cy="140" r="4" transform="rotate(-90 4 140)" fill="#FFBC11"/>
<circle id="Ellipse 6" cx="38" cy="140" r="4" transform="rotate(-90 38 140)" fill="#FFBC11"/>
<circle id="Ellipse 11" cx="72" cy="140" r="4" transform="rotate(-90 72 140)" fill="#FFBC11"/>
<circle id="Ellipse 16" cx="106" cy="140" r="4" transform="rotate(-90 106 140)" fill="#FFBC11"/>
<circle id="Ellipse 21" cx="140" cy="140" r="4" transform="rotate(-90 140 140)" fill="#FFBC11"/>
<circle id="Ellipse 2" cx="4" cy="106" r="4" transform="rotate(-90 4 106)" fill="#FFBC11"/>
<circle id="Ellipse 7" cx="38" cy="106" r="4" transform="rotate(-90 38 106)" fill="#FFBC11"/>
<circle id="Ellipse 12" cx="72" cy="106" r="4" transform="rotate(-90 72 106)" fill="#FFBC11"/>
<circle id="Ellipse 17" cx="106" cy="106" r="4" transform="rotate(-90 106 106)" fill="#FFBC11"/>
<circle id="Ellipse 22" cx="140" cy="106" r="4" transform="rotate(-90 140 106)" fill="#FFBC11"/>
<circle id="Ellipse 3" cx="4" cy="72" r="4" transform="rotate(-90 4 72)" fill="#FFBC11"/>
<circle id="Ellipse 8" cx="38" cy="72" r="4" transform="rotate(-90 38 72)" fill="#FFBC11"/>
<circle id="Ellipse 13" cx="72" cy="72" r="4" transform="rotate(-90 72 72)" fill="#FFBC11"/>
<circle id="Ellipse 18" cx="106" cy="72" r="4" transform="rotate(-90 106 72)" fill="#FFBC11"/>
<circle id="Ellipse 23" cx="140" cy="72" r="4" transform="rotate(-90 140 72)" fill="#FFBC11"/>
<circle id="Ellipse 4" cx="4" cy="38" r="4" transform="rotate(-90 4 38)" fill="#FFBC11"/>
<circle id="Ellipse 9" cx="38" cy="38" r="4" transform="rotate(-90 38 38)" fill="#FFBC11"/>
<circle id="Ellipse 14" cx="72" cy="38" r="4" transform="rotate(-90 72 38)" fill="#FFBC11"/>
<circle id="Ellipse 19" cx="106" cy="38" r="4" transform="rotate(-90 106 38)" fill="#FFBC11"/>
<circle id="Ellipse 24" cx="140" cy="38" r="4" transform="rotate(-90 140 38)" fill="#FFBC11"/>
<circle id="Ellipse 5" cx="4" cy="4" r="4" transform="rotate(-90 4 4)" fill="#FFBC11"/>
<circle id="Ellipse 10" cx="38" cy="4" r="4" transform="rotate(-90 38 4)" fill="#FFBC11"/>
<circle id="Ellipse 15" cx="72" cy="4" r="4" transform="rotate(-90 72 4)" fill="#FFBC11"/>
<circle id="Ellipse 20" cx="106" cy="4" r="4" transform="rotate(-90 106 4)" fill="#FFBC11"/>
<circle id="Ellipse 25" cx="140" cy="4" r="4" transform="rotate(-90 140 4)" fill="#FFBC11"/>
</g>
</svg>
