<svg width="60" height="60" viewBox="0 0 60 60" fill="none" xmlns="http://www.w3.org/2000/svg">
<g id="002-contract">
<path id="Vector" d="M35.3605 24.3105C35.4598 24.0366 35.4705 23.7383 35.3909 23.458C35.3114 23.1777 35.1457 22.9295 34.9174 22.7486L32.9856 21.1913V18.0217C32.9851 17.6489 32.8368 17.2916 32.5731 17.0281C32.3095 16.7645 31.9521 16.6163 31.5793 16.6159C30.542 16.6973 28.8839 16.2333 28.4029 17.4968L26.0752 15.6203C25.9085 15.4857 25.7008 15.4122 25.4865 15.4122C25.2723 15.4122 25.0645 15.4857 24.8978 15.6203L16.0547 22.7481C15.8657 22.9028 15.7202 23.1042 15.6327 23.3323C15.5451 23.5604 15.5185 23.8073 15.5555 24.0488C15.5925 24.2903 15.6917 24.518 15.8435 24.7095C15.9953 24.9009 16.1943 25.0496 16.421 25.1407V33.1297C16.4218 33.8754 16.7184 34.5903 17.2457 35.1176C17.7729 35.6448 18.4878 35.9414 19.2335 35.9422C21.0423 35.9418 27.0619 35.9425 28.9701 35.9422H31.7396C32.4853 35.9414 33.2002 35.6448 33.7274 35.1176C34.2547 34.5903 34.5513 33.8754 34.5521 33.1297V25.1406C34.739 25.0691 34.908 24.9578 35.0476 24.8145C35.1872 24.6711 35.2939 24.4992 35.3605 24.3105ZM30.174 18.4909H31.1106V19.6797L30.174 18.9246V18.4909ZM25.4865 17.5544L32.7045 23.3734H18.2676L25.4865 17.5544ZM24.549 31.1715C24.3849 31.2467 24.2457 31.3674 24.1482 31.5193C24.0507 31.6712 23.9988 31.8479 23.9988 32.0284C23.9988 32.209 24.0507 32.3857 24.1482 32.5376C24.2458 32.6895 24.3849 32.8102 24.5491 32.8853L24.549 34.0673H22.9404V30.9279C22.9407 30.6793 23.0395 30.441 23.2153 30.2653C23.3911 30.0895 23.6294 29.9907 23.8779 29.9904H24.549V31.1715ZM26.424 34.0673V32.8847C26.5908 32.8121 26.7327 32.6924 26.8324 32.5403C26.9321 32.3882 26.9852 32.2103 26.9852 32.0284C26.9852 31.8465 26.9321 31.6686 26.8324 31.5165C26.7327 31.3644 26.5908 31.2447 26.424 31.1721V29.9904H27.0951C27.3437 29.9907 27.582 30.0895 27.7577 30.2653C27.9335 30.441 28.0323 30.6793 28.0326 30.9279V34.0672L26.424 34.0673ZM32.6771 33.1298C32.6768 33.3784 32.578 33.6167 32.4022 33.7924C32.2264 33.9682 31.9881 34.0671 31.7396 34.0673H29.9076V30.9279C29.9068 30.1822 29.6102 29.4673 29.0829 28.9401C28.5557 28.4128 27.8408 28.1162 27.0951 28.1154H25.4888C25.485 28.1125 23.8825 28.1175 23.8779 28.1154C23.1323 28.1162 22.4174 28.4128 21.8901 28.9401C21.3628 29.4673 21.0662 30.1822 21.0654 30.9279V34.0672H19.2335C18.9849 34.067 18.7466 33.9681 18.5708 33.7924C18.3951 33.6166 18.2962 33.3783 18.296 33.1297V25.2484H32.6771V33.1298Z" fill="#12B632"/>
<path id="Vector_2" d="M32.048 37.512H12.4987C12.2532 37.5168 12.0194 37.6176 11.8475 37.7929C11.6756 37.9682 11.5793 38.204 11.5793 38.4495C11.5794 38.695 11.6757 38.9307 11.8476 39.106C12.0195 39.2813 12.2533 39.3822 12.4988 39.387H32.048C32.2934 39.3821 32.5271 39.2811 32.6989 39.1058C32.8707 38.9306 32.9669 38.6949 32.9669 38.4495C32.9669 38.204 32.8707 37.9684 32.6989 37.7931C32.5271 37.6178 32.2934 37.5169 32.048 37.512Z" fill="#12B632"/>
<path id="Vector_3" d="M32.048 43.1387H12.4987C12.2532 43.1435 12.0194 43.2443 11.8475 43.4196C11.6756 43.5949 11.5793 43.8307 11.5793 44.0762C11.5794 44.3217 11.6757 44.5575 11.8476 44.7327C12.0195 44.908 12.2533 45.0089 12.4988 45.0137H32.048C32.2934 45.0088 32.5271 44.9078 32.6989 44.7326C32.8707 44.5573 32.9669 44.3216 32.9669 44.0762C32.9669 43.8307 32.8707 43.5951 32.6989 43.4198C32.5271 43.2445 32.2934 43.1436 32.048 43.1387Z" fill="#12B632"/>
<path id="Vector_4" d="M32.048 48.7656H12.4987C12.2533 48.7705 12.0197 48.8715 11.8479 49.0468C11.6761 49.2221 11.5798 49.4577 11.5798 49.7032C11.5798 49.9486 11.6761 50.1843 11.8479 50.3595C12.0197 50.5348 12.2534 50.6357 12.4988 50.6406H32.048C32.2934 50.6357 32.5271 50.5348 32.6989 50.3595C32.8707 50.1842 32.967 49.9486 32.967 49.7031C32.967 49.4577 32.8707 49.222 32.6989 49.0467C32.5271 48.8715 32.2934 48.7705 32.048 48.7656Z" fill="#12B632"/>
<path id="Vector_5" d="M54.96 18.1183C54.7104 17.4871 54.3235 16.9194 53.8274 16.4563C53.3313 15.9931 52.7384 15.6461 52.0916 15.4404C51.203 14.9968 50.1751 14.9221 49.2317 15.2326C48.2883 15.5431 47.5058 16.2137 47.0544 17.0984L46.1205 18.9486C46.0732 18.1653 46.2905 17.1065 45.8389 16.6759L34.2902 4.38218L33.9523 4.03427C33.915 4.0055 33.8761 3.97887 33.8358 3.95451C33.6761 3.82819 33.4801 3.7565 33.2767 3.75H8.6023C7.60806 3.75106 6.65485 4.14649 5.95182 4.84952C5.24878 5.55255 4.85335 6.50576 4.85229 7.5V52.5C4.85335 53.4942 5.24878 54.4474 5.95182 55.1505C6.65485 55.8535 7.60806 56.2489 8.6023 56.25H42.3706C43.3648 56.2489 44.3181 55.8535 45.0211 55.1505C45.7241 54.4475 46.1195 53.4942 46.1206 52.5V38.0678L53.3661 23.712C54.0778 22.1544 55.7303 19.927 54.96 18.1183ZM48.728 17.943C48.9542 17.5011 49.3455 17.1662 49.817 17.011C50.2885 16.8558 50.8022 16.8928 51.2466 17.114C51.9477 17.4705 52.9679 17.8471 53.1783 18.7043C53.6144 19.6866 52.4713 21.1737 52.1161 22.0277L47.7727 19.8358L48.728 17.943ZM42.4548 41.1694L38.1125 38.9772L46.9282 21.5092L51.2715 23.7011L42.4548 41.1694ZM41.2042 42.6384L37.2436 46.0954L37.673 40.8559L41.2042 42.6384ZM34.5548 7.41251L43.0123 16.4062H36.4307C35.9333 16.4058 35.4564 16.208 35.1047 15.8563C34.753 15.5046 34.5552 15.0277 34.5547 14.5303L34.5548 7.41251ZM44.2456 52.5C44.245 52.9971 44.0473 53.4737 43.6958 53.8252C43.3443 54.1767 42.8677 54.3744 42.3706 54.375H8.6023C8.10519 54.3744 7.6286 54.1767 7.2771 53.8252C6.92559 53.4737 6.72786 52.9971 6.72729 52.5V7.5C6.72786 7.00289 6.92559 6.52631 7.2771 6.1748C7.6286 5.82329 8.10519 5.62557 8.6023 5.625H32.6798V14.5303C32.6809 15.5248 33.0765 16.4782 33.7796 17.1814C34.4828 17.8845 35.4362 18.2801 36.4307 18.2812H44.2456V22.6635L36.0159 38.969C35.9671 39.0791 35.9342 39.1956 35.918 39.315L35.2158 47.8839C35.2076 48.1162 35.2776 48.3445 35.4145 48.5324C35.5515 48.7202 35.7475 48.8566 35.9711 48.9198C36.1376 49.0037 36.3253 49.0361 36.5102 49.0128C36.6951 48.9894 36.8689 48.9115 37.0093 48.789L43.482 43.1384C43.7844 42.7152 44.0404 42.2608 44.2457 41.7829L44.2456 52.5Z" fill="#12B632"/>
</g>
</svg>
